# xmcd
# 
# Track frame offsets:
#     150
#     15891
#     30728
#     47466
#     64896
#     79429
#     98859
#     115787
#     133145
#     149163
# 
# Disc length: 2236
# 
# Revision: 0
# Processed by: cddbd v1.5.2PL0 Copyright (c) Steve Scherf et al.
# Submitted via: fre:ac v1.0.31
# 
DISCID=8808ba0a
DTITLE=Ana Belen - Ana En Rio
DYEAR=1982
DGENRE=Pop
TTITLE0=Balance
TTITLE1=Teresiña
TTITLE2=Expreso 2222
TTITLE3=Imposible
TTITLE4=De Donde Viene El Bayon
TTITLE5=Planeta Agua
TTITLE6=Noche De Mascaras
TTITLE7=Vuelvo
TTITLE8=Pagem Da Janela
TTITLE9=Caminando
EXTD=
EXTT0=
EXTT1=
EXTT2=
EXTT3=
EXTT4=
EXTT5=
EXTT6=
EXTT7=
EXTT8=
EXTT9=
PLAYORDER=
